<svg xmlns="http://www.w3.org/2000/svg" width="48" height="48"><path fill="#1565c0" d="M36.094 31.35c-1.695-1.5-3.754-3.225-6.66-7.35-1.865-2.647-3.512-4-5.934-4-2.664 0-4.117 1.25-5.552 3.279-2.1 2.971-2.925 3.971-5.088 5.675-.786.619-4.861 3.172-4.86 7.671.001 5.25 3.753 7.375 7.155 7.375 4.469 0 5.439-1 8.345-1 3.633 0 5.57 1 8.476 1C37.789 44 39 39.625 39 36.872c0-2.622-1.211-4.022-2.906-5.522zm-24.705-6.465c3.124-.694 3.616-3.739 3.611-5.732-.002-.696-.064-1.263-.096-1.558-.198-1.678-2.027-4.55-4.551-4.594a3.453 3.453 0 00-.365.013c-3.412.314-3.911 5.412-3.911 5.412a4.798 4.798 0 00-.078.963c.031 2.263 1.356 5.527 4.274 5.61.35.009.721-.026 1.116-.114M19.503 16C21.99 16 24 13.315 24 9.998 24 6.681 21.99 4 19.503 4 17.015 4 15 6.681 15 9.998S17.015 16 19.503 16m10.019.964c.221.031.436.041.645.033 2.696-.103 4.416-3.276 4.781-5.723.037-.241.054-.486.052-.733-.015-2.441-1.831-5.012-3.799-5.49-2.177-.532-4.893 3.173-5.138 5.59-.037.37-.059.739-.063 1.103-.025 2.552.841 4.855 3.522 5.22m12.462 4.178c0-1.281-1.004-5.142-4.742-5.142C33.496 16 33 19.644 33 22.219c0 2.41.187 5.752 4.578 5.781.087.001.176 0 .267-.002 4.027-.094 4.183-4.203 4.152-6.138-.004-.299-.013-.545-.013-.718"/><path fill="#fff" d="M24 31v7.5s0 1.875 2.625 2.5H33V31h-2.625v7.5h-2.75s-.875-.125-1-.75V31H24zm-4-4v4h-3c-2.125.375-4 2.25-3.999 4.875L13 36c0 2.75 1.875 4.625 4 5h5.625V27H20zm0 11.75h-2.375c-.75 0-2-1.125-2-2.75s1.25-2.75 2-2.75H20v5.5z"/></svg>